<?xml version="1.0" standalone="no"?>
<!DOCTYPE svg PUBLIC "-//W3C//DTD SVG 20010904//EN"
 "http://www.w3.org/TR/2001/REC-SVG-20010904/DTD/svg10.dtd">
<svg version="1.0" xmlns="http://www.w3.org/2000/svg"
 width="348.000000pt" height="169.000000pt" viewBox="0 0 348.000000 169.000000"
 preserveAspectRatio="xMidYMid meet">

<g transform="translate(0.000000,169.000000) scale(0.100000,-0.100000)"
fill="#000000" stroke="none">
<path d="M2341 1511 c-18 -41 -58 -76 -123 -106 -50 -23 -71 -26 -152 -26 -94
1 -95 0 -121 -31 -30 -36 -65 -101 -65 -121 0 -8 6 -19 13 -25 10 -8 12 -3 9
26 -3 29 4 48 30 86 l33 49 110 1 c99 1 115 4 161 28 54 28 99 74 115 116 14
35 4 38 -10 3z"/>
<path d="M1798 1353 c-33 -37 -199 -294 -281 -435 -113 -193 -155 -277 -163
-328 -7 -40 -7 -40 -27 -23 -14 13 -18 13 -12 3 18 -32 69 -90 78 -90 6 0 3 8
-6 18 -34 38 -22 102 42 225 80 154 196 346 307 510 52 75 90 137 86 137 -5 0
-16 -8 -24 -17z"/>
<path d="M1530 1214 c-225 -136 -223 -135 -216 -141 2 -3 87 46 188 108 165
101 221 139 208 139 -3 0 -84 -48 -180 -106z"/>
<path d="M1884 1128 c22 -18 54 -48 73 -66 18 -18 33 -28 33 -21 0 16 -69 79
-112 102 -32 18 -32 17 6 -15z"/>
<path d="M2045 1027 c0 -54 -5 -71 -35 -122 -88 -150 -272 -286 -387 -287 -29
0 -57 3 -62 7 -6 3 -11 2 -11 -4 0 -16 46 -24 96 -17 123 16 328 185 395 324
27 56 35 121 17 145 -11 15 -13 9 -13 -46z"/>
<path d="M1752 537 c-15 -17 -64 -288 -66 -359 0 -39 -5 -58 -13 -58 -7 0 -13
-4 -13 -10 0 -12 17 -12 44 -1 14 5 16 10 8 15 -7 4 -12 22 -12 40 0 40 36
256 55 329 14 56 14 65 -3 44z"/>
<path d="M1644 468 l-19 -23 23 19 c21 18 27 26 19 26 -2 0 -12 -10 -23 -22z"/>
<path d="M1947 436 c43 -35 67 -46 84 -35 11 7 9 9 -10 9 -13 0 -36 11 -53 25
-16 14 -34 25 -40 25 -5 0 3 -11 19 -24z"/>
<path d="M2207 332 c-9 -13 -11 -87 -3 -100 13 -22 27 -13 15 9 -6 12 -9 39
-6 60 5 38 3 47 -6 31z"/>
<path d="M1937 237 c-26 -46 -47 -93 -47 -105 0 -12 -5 -22 -11 -22 -5 0 -7
-4 -4 -10 3 -6 15 -10 26 -10 16 0 17 3 8 19 -10 15 -7 30 19 82 17 35 40 79
52 97 12 17 18 32 13 32 -5 0 -30 -38 -56 -83z"/>
<path d="M1475 300 c3 -5 16 -10 28 -9 21 0 21 1 2 9 -28 12 -37 12 -30 0z"/>
<path d="M1866 281 c-23 -43 -19 -52 5 -13 12 18 19 35 16 38 -3 3 -13 -8 -21
-25z"/>
<path d="M2376 298 c3 -4 9 -8 15 -8 5 0 9 4 9 8 0 5 -7 9 -15 9 -8 0 -12 -4
-9 -9z"/>
<path d="M1347 191 c-87 -90 -107 -115 -106 -138 1 -21 3 -23 6 -8 7 30 47 80
137 173 44 45 77 82 74 82 -2 0 -53 -49 -111 -109z"/>
<path d="M2108 273 c-39 -42 -68 -95 -68 -125 0 -16 -5 -28 -11 -28 -5 0 -7
-4 -4 -10 3 -5 15 -10 27 -10 17 0 18 3 9 14 -18 21 0 76 43 136 41 56 42 63
4 23z"/>
<path d="M1650 286 c0 -2 8 -10 18 -17 15 -13 16 -12 3 4 -13 16 -21 21 -21
13z"/>
<path d="M2320 244 c-9 -23 1 -64 16 -64 2 0 0 9 -6 21 -7 11 -9 23 -6 26 3 3
10 -6 17 -20 9 -19 9 -34 0 -59 -10 -30 -9 -31 4 -14 19 26 19 56 -1 84 -9 13
-13 29 -10 37 3 8 3 15 0 15 -2 0 -9 -12 -14 -26z"/>
<path d="M1822 197 c-11 -19 -27 -46 -37 -60 -9 -15 -13 -27 -9 -27 5 0 26 27
46 60 20 33 33 60 29 60 -5 0 -18 -15 -29 -33z"/>
<path d="M2210 119 c0 -12 25 -22 41 -17 6 2 0 9 -15 16 -16 7 -26 8 -26 1z"/>
</g>
</svg>
